<?xml version="1.0" encoding="utf-8"?>
<!-- Generator: Adobe Illustrator 21.0.0, SVG Export Plug-In . SVG Version: 6.00 Build 0)  -->
<svg version="1.1" id="图层_1" xmlns="http://www.w3.org/2000/svg" xmlns:xlink="http://www.w3.org/1999/xlink" x="0px" y="0px"
	 viewBox="0 0 42 42" style="enable-background:new 0 0 42 42;" xml:space="preserve">
<style type="text/css">
	.st0{fill:#282828;}
	.st1{clip-path:url(#SVGID_2_);}
	.st2{fill:#FFFFFF;}
	.st3{clip-path:url(#SVGID_4_);}
	.st4{clip-path:url(#SVGID_6_);}
	.st5{fill:#C61E1E;}
	.st6{fill:#DD7575;}
	.st7{clip-path:url(#SVGID_8_);}
	.st8{fill:#F29C96;}
	.st9{clip-path:url(#SVGID_10_);}
	.st10{fill:#FDFDFE;}
	.st11{fill:#64B1D7;}
	.st12{fill:#120304;}
	.st13{fill:#050001;}
	.st14{fill:#FEF4F3;}
	.st15{fill:#F08C86;}
	.st16{fill:#CC291C;}
	.st17{clip-path:url(#SVGID_12_);}
	.st18{clip-path:url(#SVGID_14_);}
</style>
<g>
	<g>
		<path class="st0" d="M30.2,31.8c0,0,0.6,0.4,1.4-0.6c0.7-1,0.1-1.9,2-2.9c1.8-1,1.3-2.2,1.3-2.2s0.3-0.3,0.5,0.8
			c0,0,0.8-0.4,0.4-1.8c0,0,1.5,0.6,0.8,3.7c0,0,0.7-0.1,0.9-0.9c0,0,0.7,3.2-1.1,4.6c0,0-1.6,1.9-4.6,1.8c0,0-1.9,0.2-2.5-0.7
			C29.2,33.7,27.8,31.6,30.2,31.8z"/>
		<path d="M31.4,34.7c-0.6,0-1.9-0.1-2.4-0.8c-0.1-0.1-0.7-1.1-0.3-1.8c0.2-0.4,0.7-0.5,1.5-0.4c0,0,0.1,0,0.1,0
			c0,0,0.5,0.3,1.1-0.6c0.2-0.3,0.3-0.6,0.4-1c0.2-0.6,0.4-1.3,1.6-2c1.6-0.9,1.2-1.9,1.2-1.9c0-0.1,0-0.2,0-0.2
			c0.1-0.1,0.2-0.1,0.3-0.1c0.2,0.1,0.3,0.3,0.5,0.7c0.2-0.2,0.3-0.6,0.1-1.4c0-0.1,0-0.2,0.1-0.2c0.1-0.1,0.1-0.1,0.2,0
			c0.1,0,1.5,0.7,1,3.6c0.2-0.1,0.3-0.3,0.4-0.6c0-0.1,0.1-0.2,0.2-0.2c0.1,0,0.2,0.1,0.2,0.2c0,0.1,0.7,3.3-1.1,4.8
			c-0.2,0.2-1.8,1.9-4.7,1.9C31.7,34.6,31.6,34.7,31.4,34.7z M29.8,32c-0.4,0-0.6,0.1-0.7,0.3c-0.2,0.4,0.2,1.1,0.3,1.3
			c0.4,0.6,1.8,0.7,2.4,0.6c0,0,0,0,0,0c2.8,0.1,4.4-1.7,4.4-1.7c0,0,0,0,0,0c1.2-1,1.2-2.8,1.1-3.8c-0.2,0.3-0.5,0.4-0.7,0.4
			c-0.1,0-0.1,0-0.2-0.1c0,0-0.1-0.1,0-0.2c0.4-1.8,0-2.7-0.3-3.1c0.1,1.1-0.6,1.4-0.6,1.5c-0.1,0-0.1,0-0.2,0
			c-0.1,0-0.1-0.1-0.1-0.1c0-0.1,0-0.2-0.1-0.3c-0.1,0.5-0.4,1.1-1.4,1.8c-1.1,0.6-1.3,1.2-1.4,1.7c-0.1,0.3-0.2,0.7-0.5,1.1
			c-0.7,1-1.4,0.8-1.6,0.7C30,32,29.9,32,29.8,32z"/>
	</g>
	<g>
		<defs>
			<path id="SVGID_1_" d="M30.4,31.9c0,0,0.6,0.4,1.3-0.6c0.7-1,0.1-1.8,1.9-2.8c1.8-1,1.2-2.1,1.2-2.1s0.3-0.3,0.5,0.8
				c0,0,0.9-0.4,0.4-1.7c0,0,1.3,0.5,0.6,3.6c0,0,0.9,0,1-0.8c0,0,0.2,2.9-1.1,4.5c0,0-1.6,1.8-4.4,1.7c0,0-1.9,0.1-2.5-0.7
				C29.5,33.7,28.1,31.6,30.4,31.9z"/>
		</defs>
		<clipPath id="SVGID_2_">
			<use xlink:href="#SVGID_1_"  style="overflow:visible;"/>
		</clipPath>
		<g class="st1">
			<polygon class="st2" points="31.5,29.8 33.6,29.1 33.1,31.7 34.8,29.3 34.8,31.3 35.8,29.7 36.6,31.4 39.5,28.7 38.2,24.3 
				35.8,23.1 33.6,24.6 32,25.6 			"/>
			<path d="M33.1,31.9C33.1,31.9,33.1,31.9,33.1,31.9c-0.2-0.1-0.2-0.1-0.2-0.2l0.4-2.3L31.6,30c-0.1,0-0.1,0-0.2,0
				c-0.1,0-0.1-0.1-0.1-0.2l0.5-4.3c0-0.1,0-0.1,0.1-0.2l1.6-0.9l2.2-1.6c0.1,0,0.1-0.1,0.2,0l2.4,1.2c0.1,0,0.1,0.1,0.1,0.1
				l1.2,4.4c0,0.1,0,0.2-0.1,0.2l-2.9,2.7c0,0-0.1,0.1-0.2,0c-0.1,0-0.1-0.1-0.1-0.1l-0.6-1.3L35,31.4c0,0.1-0.1,0.1-0.2,0.1
				c-0.1,0-0.1-0.1-0.1-0.2l0-1.4l-1.3,1.9C33.3,31.9,33.2,31.9,33.1,31.9z M35.8,29.5C35.8,29.5,35.9,29.5,35.8,29.5
				c0.1,0,0.2,0.1,0.2,0.1l0.6,1.4l2.6-2.4l-1.2-4.2l-2.2-1.1l-2.1,1.5c0,0,0,0,0,0l-1.5,0.9l-0.5,3.8l1.8-0.6c0.1,0,0.1,0,0.2,0
				c0.1,0,0.1,0.1,0.1,0.2l-0.3,1.6l1.1-1.6c0-0.1,0.1-0.1,0.2-0.1c0.1,0,0.1,0.1,0.1,0.2l0,1.4l0.7-1
				C35.7,29.6,35.8,29.5,35.8,29.5z"/>
		</g>
	</g>
	<g>
		<g>
			<path class="st0" d="M13.6,32.4L10,32.6c0,0-0.6-1.5-1.4-1.8c0,0-1.1,0-1.1,1.6l0.1,3.9c0,0-0.3,2.3,3,2.6l6.3,0.3L13.6,32.4z"/>
			<path d="M17.3,39.4l-6.7-0.3c-3.3-0.4-3.3-2.6-3.2-2.8l-0.1-3.9c0-1.8,1.3-1.8,1.3-1.8l0.1,0c0.8,0.2,1.3,1.4,1.5,1.8l3.6-0.2
				L17.3,39.4z M8.5,31c-0.1,0-0.8,0.2-0.9,1.4l0.1,3.9l0,0c0,0.1-0.2,2.1,2.9,2.4l6,0.3l-3.2-6.4l-3.6,0.2l-0.1-0.1
				C9.6,32.3,9.1,31.2,8.5,31z"/>
		</g>
		<g>
			<defs>
				<path id="SVGID_3_" d="M13.2,32.5l-3.4,0.2c0,0-0.5-1.5-1.3-1.7c0,0-1,0-1,1.5l0.1,3.7c0,0-0.2,2.2,2.9,2.5l5.9,0.3L13.2,32.5z"
					/>
			</defs>
			<clipPath id="SVGID_4_">
				<use xlink:href="#SVGID_3_"  style="overflow:visible;"/>
			</clipPath>
			<g class="st3">
				<path class="st2" d="M10,32.4c0,0-0.2,6,0.7,7.1l-3.3,0.4l-2.2-4l0.9-4l1-1.8L9,29.7l1.3,0.6L10,32.4z"/>
				<path d="M7.3,40L5,35.8l1-4.1l1-1.9l2-0.2l1.5,0.7l-0.3,2.2c-0.1,1.7-0.1,6.1,0.6,6.9l0.3,0.3L7.3,40z M5.5,35.8l2.1,3.8
					l2.8-0.3c-0.7-1.6-0.6-6.3-0.6-6.9l0,0l0.3-1.9l-1.1-0.5l-1.6,0.2l-0.9,1.7L5.5,35.8z"/>
			</g>
		</g>
	</g>
	<g>
		<g>
			<path class="st0" d="M29.4,32.8l3.6,0.2c0,0,0.6-1.5,1.4-1.8c0,0,1.1,0,1.1,1.6l-0.1,3.9c0,0,0.3,2.3-3,2.6L26,39.6L29.4,32.8z"
				/>
			<path d="M25.7,39.8l3.6-7.3l3.6,0.2c0.2-0.4,0.7-1.6,1.5-1.8l0.1,0c0,0,1.3,0,1.3,1.8l-0.1,3.9c0,0.2,0.1,2.5-3.2,2.8L25.7,39.8z
				 M29.5,33l-3.2,6.4l6-0.3c3-0.4,2.9-2.3,2.9-2.4l0,0l0,0l0.1-3.9c0-1.3-0.7-1.4-0.9-1.4c-0.6,0.2-1.1,1.3-1.3,1.7l-0.1,0.1
				L29.5,33z"/>
		</g>
		<g>
			<defs>
				<path id="SVGID_5_" d="M29.7,32.9l3.4,0.2c0,0,0.5-1.5,1.3-1.7c0,0,1,0,1,1.5l-0.1,3.7c0,0,0.2,2.2-2.9,2.5l-5.9,0.3L29.7,32.9z
					"/>
			</defs>
			<clipPath id="SVGID_6_">
				<use xlink:href="#SVGID_5_"  style="overflow:visible;"/>
			</clipPath>
			<g class="st4">
				<path class="st2" d="M32.9,32.8c0,0,0.2,6-0.7,7.1l3.3,0.4l2.2-4l-0.9-4l-1-1.8l-1.8-0.2l-1.3,0.6L32.9,32.8z"/>
				<path d="M35.6,40.4L31.8,40l0.3-0.3c0.7-0.8,0.7-5.3,0.6-6.9l-0.3-2.2l1.5-0.7l2,0.2l1.1,2l0.9,4.1L35.6,40.4z M32.6,39.7
					l2.8,0.3l2.1-3.8l-0.9-3.9l-0.9-1.7L34,30.4l-1.1,0.5l0.3,1.9C33.2,33.4,33.3,38.1,32.6,39.7z"/>
			</g>
		</g>
	</g>
	<g>
		<path class="st0" d="M14.3,25.4c0,0-8.8,13.9,6.1,14.3h3.7c2.8,0,6-1.8,6.8-4.3c0.8-2.7,0.7-6.5-2.6-10.7
			C28.2,24.8,19.1,22.9,14.3,25.4z"/>
		<path d="M20.4,40c-4.2-0.1-7-1.3-8.2-3.6c-2.3-4.3,1.8-10.8,1.9-11.1l0,0l0,0c4.8-2.5,13.7-0.7,14.1-0.7l0.1,0l0,0.1
			c3.5,4.5,3.4,8.4,2.6,10.9c-0.8,2.7-4.2,4.4-6.9,4.4H20.4z M14.4,25.6c-0.4,0.6-4,6.7-1.9,10.6c1.1,2.1,3.8,3.3,7.8,3.4h3.7
			c2.6,0,5.8-1.7,6.6-4.1c0.7-2.4,0.9-6.1-2.5-10.5C27.3,24.8,18.9,23.3,14.4,25.6z"/>
	</g>
	<g>
		<path class="st5" d="M14.4,25.8c1.6,0.4,6.8,1.4,14-0.6c0,0,1.5,0.1-0.2,1.3c0,0-5.9,3.5-14,0.3c-0.1,0-0.2-0.1-0.3-0.2
			c0,0,0,0,0,0C13.5,26.3,13.9,25.7,14.4,25.8z"/>
		<path d="M21.1,28.4c-2,0-4.4-0.3-6.9-1.3c-0.2-0.1-0.3-0.2-0.4-0.3l0,0c-0.2-0.2-0.2-0.5-0.1-0.8c0.2-0.3,0.5-0.4,0.8-0.3l0,0
			c1.4,0.4,6.7,1.4,13.9-0.6l0,0l0,0c0.1,0,0.7,0.1,0.8,0.5c0.1,0.3-0.2,0.7-0.9,1.2C28.4,26.8,25.5,28.4,21.1,28.4z M14.3,26
			c-0.1,0-0.2,0.1-0.3,0.2c0,0.1-0.1,0.2,0,0.3l0,0c0.1,0.1,0.2,0.1,0.3,0.2c7.9,3.1,13.8-0.3,13.9-0.3c0.7-0.5,0.7-0.7,0.7-0.8
			c0-0.1-0.3-0.2-0.4-0.2C21.2,27.5,15.8,26.4,14.3,26L14.3,26C14.3,26,14.3,26,14.3,26z"/>
	</g>
	<g>
		<path class="st2" d="M18.3,38.7c-0.2,0-0.7-0.2-1-0.3c-1.5-0.6-2.5-1.8-2.1-3.4c0.8-3,1.8-6.4,5.9-6.4c4.8-0.1,6.2,3.3,6.7,6.2
			c0.3,1.6-0.4,2.9-1.7,3.6c-0.2,0.1-1.1,0.5-1.4,0.5l-1.6,0.1c-0.2,0-0.4,0-0.6,0c-0.7,0-1.9,0-2.3-0.1L18.3,38.7z"/>
		<path d="M22.6,39.3c0,0-0.1,0-0.1,0l-0.3,0c-0.7,0-1.6,0-2-0.1l-1.8-0.3c-0.2,0-0.8-0.2-1.1-0.3C15.4,38,14.5,36.6,15,35
			c0.8-2.9,1.8-6.5,6.1-6.6c3.9,0,6.2,2,6.9,6.4c0.3,1.6-0.4,3-1.8,3.8c-0.2,0.1-1.2,0.5-1.5,0.6l-1.6,0.1
			C22.9,39.3,22.7,39.3,22.6,39.3z M18.3,38.5l1.8,0.3c0.4,0.1,1.3,0.1,2,0.1l0.3,0c0.2,0,0.4,0,0.6,0l1.6-0.1
			c0.2,0,1.1-0.4,1.3-0.5c1.3-0.7,1.9-1.9,1.6-3.4c-0.7-4.1-2.8-6-6.4-6c0,0-0.1,0-0.1,0c-4,0.1-4.9,3.5-5.7,6.3
			c-0.4,1.3,0.4,2.6,2,3.2C17.6,38.4,18.1,38.5,18.3,38.5z"/>
	</g>
	<g>
		<path class="st0" d="M13.2,23.8c0,0-2.4,13.4,2.1,16.5c0,0,2.2,2.1,4.8,0.1c0,0,1.3-1.6-1-3.1c0,0-1.9-6.8-0.5-10.8
			C18.6,26.4,17.7,22.5,13.2,23.8z"/>
		<path d="M17.7,41.5c-1.4,0-2.4-0.9-2.6-1c-4.6-3.1-2.3-16.1-2.2-16.7l0-0.1l0.1,0c1.5-0.4,2.8-0.4,3.8,0.2
			c1.5,0.9,1.8,2.4,1.9,2.5l0,0.1l0,0.1c-1.3,3.7,0.3,9.9,0.5,10.6c0.8,0.5,1.2,1.2,1.3,1.8c0.1,0.9-0.4,1.5-0.4,1.6l0,0
			C19.3,41.3,18.5,41.5,17.7,41.5z M13.3,24c-0.2,1.4-2.1,13.3,2.1,16.2l0,0c0.1,0.1,2.1,2,4.5,0.1c0.1-0.1,0.4-0.6,0.3-1.2
			c-0.1-0.6-0.5-1.1-1.2-1.6l-0.1,0l0-0.1c-0.1-0.3-1.9-6.8-0.5-10.9c-0.1-0.3-0.5-1.5-1.7-2.2C15.8,23.7,14.7,23.6,13.3,24z"/>
	</g>
	<g>
		<path class="st0" d="M29.7,23.8c0,0,2.4,13.4-2.1,16.5c0,0-2.2,2.1-4.8,0.1c0,0-1.3-1.6,1-3.1c0,0,1.9-6.8,0.5-10.8
			C24.2,26.4,25.2,22.5,29.7,23.8z"/>
		<path d="M25.1,41.5c-0.7,0-1.6-0.2-2.4-1l0,0c0,0-0.5-0.7-0.4-1.6c0.1-0.7,0.6-1.3,1.3-1.8c0.2-0.7,1.8-6.9,0.5-10.6l0-0.1l0-0.1
			c0-0.1,0.4-1.6,1.9-2.5c1-0.6,2.3-0.7,3.8-0.2l0.1,0l0,0.1c0.1,0.6,2.4,13.5-2.2,16.7C27.5,40.6,26.5,41.5,25.1,41.5z M22.9,40.2
			c2.4,1.9,4.4,0,4.5-0.1l0,0c4.2-2.8,2.3-14.8,2.1-16.2c-1.3-0.4-2.5-0.3-3.4,0.2c-1.2,0.7-1.6,1.9-1.7,2.2
			c1.4,4-0.4,10.6-0.5,10.9l0,0.1l-0.1,0c-0.7,0.5-1.1,1-1.2,1.6C22.5,39.7,22.8,40.2,22.9,40.2z"/>
	</g>
	<g>
		<g>
			<path class="st0" d="M10.9,10.9c0,0-2.5-7.8,4.2-9.7c0,0,0.8,1.6,0.9,3.6s1.8,2.5,1.8,2.5L10.9,10.9z"/>
			<path d="M10.8,11.1l-0.1-0.2C10.6,10.8,9.5,7,11.1,4c0.8-1.5,2.1-2.5,3.9-3l0.2,0L15.3,1c0,0.1,0.8,1.7,0.9,3.6
				C16.2,6.5,17.8,7,17.8,7l0.4,0.2L10.8,11.1z M15,1.4c-1.6,0.5-2.8,1.5-3.5,2.8c-1.3,2.4-0.6,5.5-0.4,6.4l6.3-3.3
				c-0.6-0.3-1.5-1.1-1.6-2.5C15.7,3.2,15.1,1.8,15,1.4z"/>
		</g>
		<g>
			<path class="st0" d="M24.4,6.4c0,0,0.7-5,2.1-5.7c0,0,3.6,0.4,4.6,4.6c0,0,0.6,3.5,0,4.8L24.4,6.4z"/>
			<path d="M31.2,10.3l-7-3.8l0-0.1c0.1-0.5,0.7-5.1,2.2-5.8l0.1,0l0.1,0c0,0,3.7,0.5,4.8,4.7c0,0.2,0.6,3.6,0,4.9L31.2,10.3z
				 M24.6,6.3L31,9.8c0.5-1.3-0.1-4.4-0.1-4.5C30,1.6,27,1,26.5,0.9C25.5,1.5,24.8,4.9,24.6,6.3z"/>
		</g>
		<g>
			<path class="st6" d="M14.2,2.6c0,0-3.6-0.4-2.7,7.8l0.9,0.4l4.3-2.1l-0.5-1.8c0,0-1.2-0.6-1-1.9C15,4.9,15.5,3.2,14.2,2.6z"/>
			<path d="M12.3,10.9l-1.1-0.5l0-0.1c-0.4-3.6,0.1-6.1,1.3-7.3c0.8-0.8,1.6-0.7,1.7-0.7l0,0l0,0c1.2,0.6,1.1,1.9,1,2.5
				c-0.1,1.2,0.9,1.7,0.9,1.7l0.1,0l0.6,2.1L12.3,10.9z M11.6,10.2l0.7,0.3l4-2l-0.5-1.6c-0.3-0.2-1.2-0.8-1.1-2.1l0,0
				c0-0.1,0.4-1.4-0.7-2c-0.1,0-0.7,0-1.3,0.6C12,4.1,11.2,5.9,11.6,10.2z"/>
		</g>
		<g>
			<defs>
				<path id="SVGID_7_" d="M14.1,2.8c0,0-3.2-0.3-2.4,7l0.8,0.3l3.8-1.9l-0.5-1.7c0,0-1.1-0.5-1-1.8C14.8,4.8,15.3,3.4,14.1,2.8z"/>
			</defs>
			<clipPath id="SVGID_8_">
				<use xlink:href="#SVGID_7_"  style="overflow:visible;"/>
			</clipPath>
			<g class="st7">
				<path class="st8" d="M11.1,6.3c0,0,2.5-2.5,4.3-2.1l0.2-1.6l-1.8-1.1l-1.6,0.7l-1,0.9L10.5,4L11.1,6.3z"/>
			</g>
		</g>
		<g>
			<path class="st6" d="M26.5,1.7c0,0-1.2,2.4-1.3,5.8l5.1,2.6c0,0,0.3-2.9-0.8-6C29.5,4.1,28.4,2.1,26.5,1.7z"/>
			<path d="M30.4,10.4L25,7.6l0-0.1c0.1-3.4,1.3-5.8,1.3-5.9l0.1-0.1l0.2,0c2,0.5,3.1,2.5,3.2,2.5l0,0c1.1,3.1,0.8,5.9,0.8,6.1
				L30.4,10.4z M25.4,7.4l4.7,2.4c0-0.8,0.1-3.1-0.8-5.6c-0.1-0.2-1.1-1.8-2.7-2.3C26.4,2.5,25.5,4.6,25.4,7.4z"/>
		</g>
		<g>
			<defs>
				<path id="SVGID_9_" d="M26.6,1.9c0,0-1.1,2.4-1.2,5.7l4.7,2.5c0,0,0.3-2.8-0.7-5.8C29.4,4.3,28.4,2.4,26.6,1.9z"/>
			</defs>
			<clipPath id="SVGID_10_">
				<use xlink:href="#SVGID_9_"  style="overflow:visible;"/>
			</clipPath>
			<g class="st9">
				<path class="st8" d="M25.2,4.1c0,0,4.1,0.1,5.5,3.8c1.4,3.7,1.4-1.6,1.4-1.6l-1.6-3.4l-2.9-1.5l-1.4-0.3l-0.5,0.7L25.2,4.1z"/>
			</g>
		</g>
		<g>
			<path class="st0" d="M10.5,11.3c0,0,2.6-5.2,10.5-5.7c8-0.5,10.6,4.8,10.6,4.8s8.4,12.4-5.4,15.8c-8.6,2.1-14.5-1-16.2-3
				c-1-1.1-1.3-3-1.4-4.2C8.5,17.1,9.1,13.1,10.5,11.3z"/>
			<path d="M20.5,27.1c-5.4,0-9.2-2-10.7-3.8c-1-1.1-1.3-3-1.4-4.3c-0.1-2.1,0.5-6,1.9-7.9c0.2-0.3,3-5.3,10.6-5.8
				c7.8-0.4,10.6,4.6,10.8,4.9c0.2,0.3,3.9,5.9,2,10.6c-1,2.7-3.6,4.5-7.6,5.5C24.1,26.9,22.2,27.1,20.5,27.1z M21.9,5.7
				c-0.3,0-0.6,0-0.9,0c-7.7,0.4-10.3,5.5-10.3,5.6l0,0c-1.3,1.8-1.9,5.7-1.9,7.7c0.1,1.3,0.4,3,1.3,4.1c1.2,1.5,6.8,5.2,15.9,2.9
				c3.9-1,6.3-2.7,7.3-5.3c1.8-4.6-2-10.2-2-10.2l0,0C31.4,10.4,28.9,5.7,21.9,5.7z"/>
		</g>
		<g>
			<path class="st10" d="M12.2,16.9c1.1,0.7,2.6,2.1,4.5,2.2c0.2,0,0.4,0,0.5-0.1c0.7-0.3,2.2-1.5,2.7-6.5c0,0,0.6-1,1.3,0.1
				c0,0,1,5.5,2.5,5.9c0,0,4.3,2,6.1-2c0,0,1.1-2.2,2.2-0.5c0.4,0.6,0.3,1.1,0.3,1.8c-0.1,2-1,6.3-7.2,7.9c0,0-5.5,1.5-11.4-1.4
				c-0.4-0.2-1.3-0.9-1.8-1.5c-0.8-0.8-1.8-2.8-1.5-5.1C10.3,17,11.4,16.5,12.2,16.9z"/>
			<path d="M21.4,26.4c-2.1,0-5-0.4-7.9-1.8c-0.5-0.2-1.4-1-1.9-1.5c-0.7-0.8-1.9-2.7-1.6-5.3c0.1-0.5,0.4-0.9,0.8-1.2
				c0.5-0.2,1-0.2,1.4,0.1l0,0c0.3,0.2,0.5,0.3,0.8,0.6c1,0.7,2.1,1.5,3.5,1.6c0.1,0,0.3,0,0.4-0.1c0.6-0.3,2.1-1.4,2.6-6.3l0,0l0,0
				c0-0.1,0.4-0.6,0.9-0.6c0,0,0,0,0,0c0.3,0,0.6,0.2,0.8,0.6l0,0l0,0c0.3,1.5,1.2,5.5,2.3,5.8l0,0c0,0,1.9,0.9,3.7,0.3
				c0.9-0.3,1.6-1,2.1-2.1c0-0.1,0.7-1.3,1.6-1.3c0.4,0,0.8,0.2,1.1,0.8c0.4,0.6,0.3,1.1,0.3,1.7c0,0.1,0,0.2,0,0.3
				c0,1.5-0.7,6.3-7.5,8.2C25.1,26,23.7,26.4,21.4,26.4z M11.6,17c-0.2,0-0.3,0-0.5,0.1c-0.3,0.2-0.6,0.5-0.6,0.8
				c-0.3,2.4,0.8,4.2,1.5,4.9c0.5,0.5,1.3,1.2,1.8,1.4c5.8,2.8,11.2,1.4,11.3,1.4c6.6-1.8,7.2-6.4,7.2-7.8c0-0.1,0-0.2,0-0.3
				c0-0.6,0-1-0.2-1.4c-0.2-0.4-0.5-0.6-0.8-0.6c-0.5,0-1.1,0.8-1.2,1c-0.5,1.1-1.3,1.9-2.3,2.3c-1.8,0.7-3.7-0.2-4-0.3
				c-1.6-0.5-2.5-5.3-2.6-6.1c-0.1-0.2-0.3-0.3-0.5-0.3c0,0,0,0,0,0c-0.2,0-0.5,0.2-0.5,0.4c-0.6,4.9-2,6.2-2.8,6.6
				c-0.2,0.1-0.4,0.1-0.6,0.1c-1.5-0.1-2.8-1-3.8-1.7c-0.3-0.2-0.6-0.4-0.8-0.5l0,0C12,17,11.8,17,11.6,17z"/>
		</g>
		<g>
			
				<ellipse transform="matrix(0.3933 -0.9194 0.9194 0.3933 -0.8064 21.8879)" class="st10" cx="16.2" cy="11.6" rx="0.7" ry="1.5"/>
		</g>
		<g>
			<ellipse transform="matrix(0.9541 -0.2994 0.2994 0.9541 -2.2864 7.985)" class="st10" cx="24.9" cy="11.5" rx="1.5" ry="0.7"/>
		</g>
		<g>
			<path class="st10" d="M12.9,14.2h5.2c0,0,0.2,3.1-2.5,3.3C13.1,17.6,12.9,14.2,12.9,14.2z"/>
		</g>
		<g>
			<path class="st10" d="M23,14.2h5.2c0,0,0.2,3.1-2.5,3.3C23.1,17.6,23,14.2,23,14.2z"/>
		</g>
		<g>
			<circle class="st11" cx="15.5" cy="15.6" r="1.2"/>
			<path class="st12" d="M15.5,16.9c-0.7,0-1.3-0.6-1.3-1.3s0.6-1.3,1.3-1.3s1.3,0.6,1.3,1.3S16.2,16.9,15.5,16.9z M15.5,14.6
				c-0.6,0-1.1,0.5-1.1,1.1c0,0.6,0.5,1.1,1.1,1.1c0.6,0,1.1-0.5,1.1-1.1C16.6,15,16.1,14.6,15.5,14.6z"/>
		</g>
		<g>
			<circle class="st13" cx="15.5" cy="15.6" r="0.5"/>
		</g>
		<g>
			<circle class="st14" cx="15.3" cy="15.2" r="0.1"/>
		</g>
		<g>
			<circle class="st11" cx="25.7" cy="15.6" r="1.2"/>
			<path class="st12" d="M25.7,16.9c-0.7,0-1.3-0.6-1.3-1.3s0.6-1.3,1.3-1.3c0.7,0,1.3,0.6,1.3,1.3S26.4,16.9,25.7,16.9z M25.7,14.6
				c-0.6,0-1.1,0.5-1.1,1.1c0,0.6,0.5,1.1,1.1,1.1c0.6,0,1.1-0.5,1.1-1.1C26.8,15,26.3,14.6,25.7,14.6z"/>
		</g>
		<g>
			<circle class="st13" cx="25.7" cy="15.6" r="0.5"/>
		</g>
		<g>
			<circle class="st14" cx="25.5" cy="15.2" r="0.1"/>
		</g>
		<g>
			<line class="st10" x1="20.9" y1="22" x2="20.9" y2="20.3"/>
			<path d="M20.9,22.2c-0.1,0-0.2-0.1-0.2-0.2v-1.7c0-0.1,0.1-0.2,0.2-0.2c0.1,0,0.2,0.1,0.2,0.2V22C21.1,22.1,21,22.2,20.9,22.2z"
				/>
		</g>
		<g>
			<path class="st0" d="M19.3,19.9c-0.3-0.3-0.3-0.8,0-1.1c0.3-0.3,0.8-0.7,1.8-0.6c0.6,0,1.1,0.2,1.3,0.3c0.4,0.3,0.5,0.9,0.2,1.3
				c-0.3,0.4-0.8,0.9-1.6,1C20.3,20.9,19.6,20.3,19.3,19.9z"/>
			<path d="M20.8,20.9c-0.7,0-1.3-0.5-1.6-0.9l0,0c-0.3-0.4-0.3-0.9,0-1.3c0.3-0.3,0.8-0.7,1.9-0.7c0.6,0,1.1,0.1,1.4,0.3
				c0.2,0.1,0.4,0.4,0.4,0.6c0.1,0.3,0,0.6-0.2,0.8c-0.3,0.4-0.8,1-1.6,1.1C21,20.9,20.9,20.9,20.8,20.9z M19.4,19.8
				c0.4,0.5,1,1,1.7,0.8c0.7-0.1,1.2-0.6,1.5-1c0.1-0.2,0.2-0.4,0.1-0.6c0-0.2-0.2-0.4-0.3-0.5c-0.3-0.2-0.7-0.3-1.3-0.3
				c-0.8,0-1.4,0.2-1.7,0.6C19.1,19.1,19.1,19.5,19.4,19.8L19.4,19.8z"/>
		</g>
		<g>
			<ellipse class="st2" cx="20.8" cy="18.5" rx="0.3" ry="0.1"/>
		</g>
		<g>
			<path class="st0" d="M16.8,22.3c-0.2-0.2-0.1-0.5,0.2-0.5c0.8,0.1,2,0.3,4,0.3c2.2,0,3.4-0.3,4.1-0.4c0.2-0.1,0.4,0.2,0.3,0.4
				c-0.4,0.5-1.4,1.3-3.9,1.4C18.9,23.7,17.5,22.9,16.8,22.3z"/>
			<path d="M20.8,23.7c-2.1,0-3.4-0.7-4.1-1.3l0,0c-0.1-0.1-0.2-0.3-0.1-0.4c0.1-0.2,0.2-0.2,0.4-0.2c0.7,0.1,2,0.3,4,0.3
				c2.1,0,3.4-0.3,4-0.4c0.2,0,0.3,0,0.4,0.1c0.1,0.1,0.1,0.3,0,0.4c-0.5,0.6-1.5,1.3-4,1.5C21.2,23.7,21,23.7,20.8,23.7z
				 M16.8,22.3c0.8,0.6,2.2,1.3,4.6,1.2c2.4-0.1,3.4-0.8,3.8-1.4c0.1-0.1,0-0.1,0-0.2c0,0-0.1-0.1-0.2-0.1c-0.7,0.2-1.9,0.4-4.1,0.5
				c-2,0-3.3-0.1-4-0.3c-0.1,0-0.2,0-0.2,0.1C16.8,22.1,16.8,22.2,16.8,22.3L16.8,22.3z"/>
		</g>
		<g>
			<path class="st15" d="M19.8,22.5c0.2,0,0.7,0,0.9,0.1c0,0,1.1-0.3,1.5,0c0.5,0.3,0.2,3.3-1.4,3.3c-1.1,0-1.6-1.8-1.7-2.8
				C19.2,22.8,19.5,22.5,19.8,22.5z"/>
			<path d="M20.9,26c-1.3,0-1.7-1.9-1.8-2.9c0-0.2,0.1-0.4,0.2-0.5c0.1-0.1,0.3-0.2,0.5-0.2l0,0c0.4,0,0.7,0,0.9,0.1
				c0.2-0.1,1.1-0.3,1.6,0c0.3,0.2,0.3,1.2,0.1,2C22.2,25.4,21.6,26,20.9,26z M19.8,22.6c-0.1,0-0.3,0.1-0.4,0.2
				c-0.1,0.1-0.2,0.2-0.1,0.4c0,0.8,0.5,2.7,1.6,2.7c0.9,0,1.2-1,1.4-1.4c0.2-0.8,0.2-1.6,0-1.8c-0.4-0.2-1.2,0-1.5,0l0,0l0,0
				C20.6,22.6,20.1,22.6,19.8,22.6L19.8,22.6C19.8,22.6,19.8,22.6,19.8,22.6z"/>
		</g>
		<g>
			<path class="st15" d="M20.8,22.8c0,0,0.3,0.4,0.1,1.6"/>
			<path d="M20.9,24.6C20.9,24.6,20.9,24.6,20.9,24.6c-0.1,0-0.1-0.1-0.1-0.1c0.1-1.2-0.1-1.6-0.1-1.6c0,0,0-0.1,0-0.1
				c0,0,0.1,0,0.1,0c0,0,0.3,0.4,0.1,1.7C21,24.5,21,24.6,20.9,24.6z"/>
		</g>
		<g>
			<circle class="st16" cx="13.4" cy="20.7" r="1"/>
		</g>
		<g>
			<circle class="st16" cx="29.6" cy="20.3" r="1"/>
		</g>
	</g>
	<g>
		<defs>
			<path id="SVGID_11_" d="M13.3,24.9c0,0-2.3,12.4,2,15.3c0,0,2.4,2,4.7,0c0,0,0.9-1.5-1.2-2.9c0,0-1.8-6.3-0.5-10
				C18.4,27.3,17.5,23.6,13.3,24.9z"/>
		</defs>
		<clipPath id="SVGID_12_">
			<use xlink:href="#SVGID_11_"  style="overflow:visible;"/>
		</clipPath>
		<g class="st17">
			<polygon class="st2" points="11.8,37.8 20.6,35.2 22,39.8 18.3,42.8 12.5,41 			"/>
			<path d="M18.3,43l-5.9-1.8l-0.8-3.6l9.2-2.7l1.6,4.9L18.3,43z M12.7,40.9l5.5,1.7l3.6-2.9l-1.4-4.3L12,37.9L12.7,40.9z"/>
		</g>
	</g>
	<g>
		<defs>
			<path id="SVGID_13_" d="M29.4,24.6c0,0,2.3,12.7-2,15.6c0,0-2.1,2-4.5,0c0,0-1.2-1.5,0.9-3c0,0,1.8-6.4,0.5-10.2
				C24.3,27.1,25.2,23.4,29.4,24.6z"/>
		</defs>
		<clipPath id="SVGID_14_">
			<use xlink:href="#SVGID_13_"  style="overflow:visible;"/>
		</clipPath>
		<g class="st18">
			<polygon class="st2" points="22.2,35.4 31.4,37.3 30.3,41.9 23.6,44 21,41 21.4,37.1 			"/>
			<path d="M23.5,44.2L20.8,41l0.5-4l0.8-1.9l9.6,2l-1.2,5L23.5,44.2z M21.2,40.9l2.5,2.8l6.5-2l1-4.3l-8.8-1.8l-0.7,1.6L21.2,40.9z
				"/>
		</g>
	</g>
</g>
</svg>
