<?xml version="1.0" encoding="utf-8"?>
<!-- Generator: Adobe Illustrator 21.0.0, SVG Export Plug-In . SVG Version: 6.00 Build 0)  -->
<svg version="1.1" id="图层_1" xmlns="http://www.w3.org/2000/svg" xmlns:xlink="http://www.w3.org/1999/xlink" x="0px" y="0px"
	 viewBox="0 0 200 200" style="enable-background:new 0 0 200 200;" xml:space="preserve">
<style type="text/css">
	.st0{fill:#282828;}
	.st1{clip-path:url(#SVGID_2_);}
	.st2{fill:#FFFFFF;}
	.st3{clip-path:url(#SVGID_4_);}
	.st4{clip-path:url(#SVGID_6_);}
	.st5{fill:#C61E1E;}
	.st6{fill:#DD7575;}
	.st7{clip-path:url(#SVGID_8_);}
	.st8{fill:#F29C96;}
	.st9{clip-path:url(#SVGID_10_);}
	.st10{fill:#FDFDFE;}
	.st11{fill:#64B1D7;}
	.st12{fill:#120304;}
	.st13{fill:#050001;}
	.st14{fill:#FEF4F3;}
	.st15{fill:#F08C86;}
	.st16{fill:#CC291C;}
	.st17{clip-path:url(#SVGID_12_);}
	.st18{clip-path:url(#SVGID_14_);}
</style>
<g>
	<g>
		<path class="st0" d="M142.4,153c0,0,3.1,1.9,6.7-3.1c3.6-5,0.6-8.9,9.4-14s6-10.4,6-10.4s1.5-1.3,2.6,3.9c0,0,4.1-2,1.9-8.7
			c0,0,7.2,2.9,3.9,17.9c0,0,3.5-0.2,4.1-4.1c0,0,3.2,15.2-5.2,22.3c0,0-7.9,9-21.9,8.6c0,0-9.3,0.7-12.2-3.5
			C137.7,161.9,130.7,151.6,142.4,153z"/>
		<path d="M148.3,166.5c-2.9,0-9-0.5-11.4-4c-0.4-0.5-3.5-5.4-1.6-8.4c1.1-1.8,3.5-2.5,7.3-2c0.1,0,0.3,0.1,0.4,0.1
			c0.1,0.1,2.4,1.3,5.4-2.8c1.2-1.6,1.6-3.1,2-4.7c0.8-3,1.7-6.1,7.7-9.6c7.8-4.5,5.7-8.9,5.6-9.1c-0.2-0.4-0.1-0.9,0.2-1.2
			c0.3-0.3,0.9-0.5,1.6-0.3c0.9,0.3,1.6,1.3,2.2,3.2c0.8-1,1.6-3,0.4-6.6c-0.1-0.4,0-0.8,0.3-1c0.3-0.3,0.7-0.3,1-0.2
			c0.3,0.1,7.4,3.2,4.8,17.4c0.8-0.4,1.6-1.3,1.9-2.9c0.1-0.5,0.5-0.8,0.9-0.8c0.5,0,0.9,0.3,1,0.8c0.1,0.6,3.2,15.8-5.5,23.2
			c-0.8,0.9-8.7,9.3-22.6,8.9C149.7,166.5,149.1,166.5,148.3,166.5z M140.4,153.9c-1.8,0-3,0.4-3.5,1.2c-1,1.7,0.8,5.2,1.6,6.3
			c2.1,3.1,8.9,3.3,11.3,3.1c0,0,0.1,0,0.1,0c13.4,0.4,21.1-8.2,21.2-8.3c0,0,0.1-0.1,0.1-0.1c5.6-4.7,5.7-13.5,5.3-18.2
			c-1.1,1.2-2.6,1.7-3.5,1.8c-0.3,0-0.6-0.1-0.8-0.3c-0.2-0.2-0.3-0.5-0.2-0.8c1.9-8.7,0.2-13-1.4-15.1c0.5,5.1-2.8,6.9-3,7
			c-0.3,0.1-0.6,0.1-0.9,0c-0.3-0.1-0.5-0.4-0.5-0.7c-0.1-0.5-0.2-0.9-0.3-1.3c-0.2,2.3-1.7,5.5-6.8,8.4c-5.3,3.1-6,5.5-6.8,8.4
			c-0.5,1.7-0.9,3.4-2.3,5.3c-3.5,5-6.8,3.9-7.7,3.5C141.5,153.9,141,153.9,140.4,153.9z"/>
	</g>
	<g>
		<defs>
			<path id="SVGID_1_" d="M143.6,153.2c0,0,3,1.9,6.5-3c3.5-4.9,0.6-8.7,9.1-13.6c8.5-4.9,5.8-10.1,5.8-10.1s1.4-1.3,2.5,3.8
				c0,0,4.1-1.9,2-8.4c0,0,6.1,2.4,2.6,17.3c0,0,4.4-0.2,5-4c0,0,1.1,14-5.1,21.6c0,0-7.7,8.7-21.3,8.4c0,0-9,0.7-11.8-3.4
				C139,161.8,132.3,151.8,143.6,153.2z"/>
		</defs>
		<clipPath id="SVGID_2_">
			<use xlink:href="#SVGID_1_"  style="overflow:visible;"/>
		</clipPath>
		<g class="st1">
			<polygon class="st2" points="148.7,143.4 159,139.8 156.6,152.4 164.3,140.7 164.6,150.5 169.5,142.9 173,151 187,138 181,116.8 
				169.4,110.9 159,118.5 151.2,122.9 			"/>
			<path d="M156.6,153.3c-0.1,0-0.2,0-0.4-0.1c-0.4-0.2-0.7-0.6-0.6-1.1l2.1-10.9l-8.6,3.1c-0.3,0.1-0.7,0.1-0.9-0.2
				c-0.3-0.2-0.4-0.5-0.4-0.9l2.5-20.5c0-0.3,0.2-0.6,0.5-0.7l7.7-4.4l10.4-7.5c0.3-0.2,0.7-0.2,1-0.1l11.7,5.8
				c0.2,0.1,0.4,0.3,0.5,0.6l6,21.3c0.1,0.4,0,0.7-0.3,1l-14,12.9c-0.2,0.2-0.6,0.3-0.9,0.2c-0.3-0.1-0.6-0.3-0.7-0.6l-2.7-6.4
				l-3.9,6c-0.2,0.4-0.7,0.5-1.1,0.4c-0.4-0.1-0.7-0.5-0.7-0.9l-0.2-6.7l-6,9.1C157.2,153.2,156.9,153.3,156.6,153.3z M169.5,141.9
				C169.5,141.9,169.6,141.9,169.5,141.9c0.4,0,0.8,0.3,0.9,0.6l2.9,6.8l12.6-11.6l-5.7-20.3l-10.7-5.4l-9.9,7.2c0,0-0.1,0-0.1,0.1
				l-7.3,4.2l-2.3,18.4l8.8-3.1c0.3-0.1,0.7,0,1,0.2c0.3,0.2,0.4,0.6,0.3,0.9l-1.5,7.9l5.1-7.6c0.2-0.4,0.7-0.5,1.1-0.4
				c0.4,0.1,0.7,0.5,0.7,0.9l0.2,6.7l3.2-4.9C168.9,142.1,169.2,141.9,169.5,141.9z"/>
		</g>
	</g>
	<g>
		<g>
			<path class="st0" d="M62.6,155.5l-17.2,1.1c0,0-2.7-7.4-6.8-8.6c0,0-5.1,0-5.2,7.8l0.4,18.6c0,0-1.2,10.8,14.6,12.7l30.4,1.3
				L62.6,155.5z"/>
			<path d="M80.4,189.4L48.3,188c-15.9-1.8-15.6-12.6-15.5-13.7l-0.4-18.6c0.1-8.7,6.1-8.8,6.2-8.8l0.3,0c3.8,1.1,6.4,6.6,7.2,8.6
				l17.1-1.1L80.4,189.4z M38.5,148.9c-0.7,0.1-4,0.7-4.1,6.8l0.4,18.7l0,0.1c0,0.4-0.9,9.9,13.8,11.6l28.7,1.3L62,156.5l-17.2,1.1
				l-0.2-0.7C43.8,155,41.4,149.9,38.5,148.9z"/>
		</g>
		<g>
			<defs>
				<path id="SVGID_3_" d="M61,156.1l-16.1,1c0,0-2.5-7.1-6.4-8.2c0,0-4.8,0-4.9,7.4l0.3,17.7c0,0-1.1,10.3,13.7,12.1l28.5,1.3
					L61,156.1z"/>
			</defs>
			<clipPath id="SVGID_4_">
				<use xlink:href="#SVGID_3_"  style="overflow:visible;"/>
			</clipPath>
			<g class="st3">
				<path class="st2" d="M45.5,155.6c0,0-1.1,28.9,3.3,34l-15.7,1.7L22.8,172l4.4-19.2l4.7-8.8l8.7-1.1l6.4,2.8L45.5,155.6z"/>
				<path d="M32.6,192.3l-10.8-20.2l4.6-19.8l5-9.3l9.4-1.2l7.3,3.2l-1.6,10.6c-0.3,8-0.3,29.3,3.1,33.3l1.2,1.4L32.6,192.3z
					 M23.9,171.8l9.9,18.4l13.5-1.5c-3.5-7.5-2.8-30.4-2.7-33.2l0-0.1l1.4-9.1l-5.5-2.4l-7.9,1l-4.4,8.2L23.9,171.8z"/>
			</g>
		</g>
	</g>
	<g>
		<g>
			<path class="st0" d="M138.5,157.4l17.2,1.1c0,0,2.7-7.4,6.8-8.6c0,0,5.1,0,5.2,7.8l-0.4,18.6c0,0,1.2,10.8-14.6,12.7l-30.4,1.3
				L138.5,157.4z"/>
			<path d="M120.7,191.4l17.2-34.9l17.1,1.1c0.8-2,3.4-7.4,7.2-8.6l0.3,0c0.1,0,6.1,0.1,6.2,8.8l-0.4,18.6
				c0.1,1.1,0.4,11.8-15.5,13.7L120.7,191.4z M139,158.5l-15.2,30.8l28.8-1.3c14.5-1.7,13.7-11.2,13.7-11.6l0-0.1l0-0.1l0.4-18.6
				c-0.1-6.1-3.4-6.7-4.1-6.8c-2.9,1-5.3,6.1-6,8l-0.2,0.7L139,158.5z"/>
		</g>
		<g>
			<defs>
				<path id="SVGID_5_" d="M140,158.1l16.1,1c0,0,2.5-7.1,6.4-8.2c0,0,4.8,0,4.9,7.4l-0.3,17.7c0,0,1.1,10.3-13.7,12.1l-28.5,1.3
					L140,158.1z"/>
			</defs>
			<clipPath id="SVGID_6_">
				<use xlink:href="#SVGID_5_"  style="overflow:visible;"/>
			</clipPath>
			<g class="st4">
				<path class="st2" d="M155.6,157.5c0,0,1.1,28.9-3.3,34l15.7,1.7l10.3-19.3l-4.4-19.2l-4.7-8.8l-8.7-1.1l-6.4,2.8L155.6,157.5z"
					/>
				<path d="M168.4,194.3l-18.2-2l1.2-1.4c3.4-3.9,3.4-25.3,3.1-33.3l-1.6-10.6l7.3-3.2l9.4,1.2l5,9.5l4.5,19.5L168.4,194.3z
					 M153.9,190.7l13.5,1.5l9.9-18.4l-4.3-18.7l-4.4-8.2l-7.9-1l-5.5,2.4l1.4,9.3C156.6,160.3,157.4,183.3,153.9,190.7z"/>
			</g>
		</g>
	</g>
	<g>
		<path class="st0" d="M66.1,122.2c0,0-42.4,66.8,29.2,68.8h17.8c13.4-0.2,28.9-8.8,32.4-20.5c3.8-12.8,3.5-31-12.4-51.4
			C133.1,119.1,89.3,110.2,66.1,122.2z"/>
		<path d="M95.4,192c-20.3-0.6-33.5-6.4-39.3-17.3c-11-20.6,8.4-51.7,9.3-53l0.1-0.2l0.2-0.1c23.2-12,65.8-3.6,67.6-3.2l0.4,0.1
			l0.2,0.3c16.9,21.5,16.2,40.3,12.6,52.3c-3.8,12.8-20.3,21-33.3,21.2H95.4z M66.8,122.9c-1.7,2.8-19,32.1-9.1,50.9
			c5.4,10.2,18.1,15.7,37.6,16.2h17.7c12.4-0.2,28-8.2,31.5-19.8c3.4-11.5,4.1-29.5-12.1-50.2C128.4,119.2,88.4,112,66.8,122.9z"/>
	</g>
	<g>
		<path class="st5" d="M66.7,124.3c7.8,2,32.8,6.6,67.3-2.8c0,0,7.4,0.7-0.7,6.4c0,0-28.3,16.7-67.3,1.5c-0.6-0.2-1.2-0.6-1.6-1.1
			c0,0-0.1-0.1-0.1-0.2C62.5,126.4,64.3,123.6,66.7,124.3z"/>
		<path d="M98.7,136.7c-9.7,0-20.9-1.6-33.1-6.4c-0.8-0.3-1.4-0.7-2-1.3l-0.2-0.2c-1-1.1-1.2-2.6-0.4-3.9c0.8-1.3,2.4-2,4-1.6l0,0
			c6.9,1.7,32.2,6.7,66.8-2.8l0.2,0l0.2,0c0.3,0,3.3,0.4,3.9,2.4c0.4,1.6-0.9,3.5-4.1,5.8C133.6,128.8,119.9,136.7,98.7,136.7z
			 M66,125.1c-0.7,0-1.1,0.4-1.4,0.8c-0.1,0.3-0.4,0.9,0.2,1.6l0.1,0.1c0.3,0.3,0.8,0.6,1.3,0.8c38.1,14.9,66.2-1.3,66.5-1.5
			c3.5-2.5,3.3-3.5,3.3-3.6c-0.1-0.4-1.2-0.8-2-0.9c-34.9,9.5-60.5,4.6-67.6,2.8l0,0C66.3,125.2,66.2,125.1,66,125.1z"/>
	</g>
	<g>
		<path class="st2" d="M85.2,186.1c-1.1-0.2-3.6-0.9-4.9-1.4c-7.3-2.7-12.1-8.7-10-16.3c3.9-14.5,8.7-30.6,28.2-30.9
			c23.1-0.3,29.8,15.8,32.3,29.8c1.4,7.9-2.1,14-8.3,17.3c-1,0.6-5.5,2.4-6.7,2.5l-7.5,0.6c-1,0.1-2.1,0.1-3.1,0.1
			c-3.5-0.1-9-0.1-11.2-0.5L85.2,186.1z"/>
		<path d="M105.8,188.8c-0.2,0-0.4,0-0.6,0l-1.7,0c-3.4-0.1-7.7-0.1-9.7-0.5L85,187c-1.1-0.2-3.6-0.9-5-1.4
			c-8.5-3.1-12.7-10-10.6-17.5c3.8-14,8.5-31.3,29.1-31.6c18.6-0.2,29.5,9.7,33.3,30.6c1.4,7.9-1.8,14.6-8.8,18.3
			c-1.1,0.6-5.6,2.5-7.1,2.7l-7.5,0.6C107.5,188.8,106.7,188.8,105.8,188.8z M85.4,185.1l8.8,1.3c1.8,0.3,6,0.4,9.4,0.5l1.7,0
			c1,0,2,0,3-0.1l7.5-0.6c0.9-0.1,5.2-1.8,6.3-2.4c6.2-3.3,9.1-9.3,7.8-16.3c-3.6-19.7-13.3-29-30.6-29c-0.2,0-0.5,0-0.7,0
			c-19.1,0.3-23.7,16.8-27.3,30.2c-1.8,6.4,2,12.4,9.4,15.1C81.9,184.3,84.3,184.9,85.4,185.1z"/>
	</g>
	<g>
		<path class="st0" d="M60.7,114.6c0,0-11.7,64.3,10.2,79.1c0,0,10.7,10.2,22.9,0.2c0,0,6.3-7.8-4.6-15.1c0,0-9.3-32.6-2.4-51.9
			C86.7,127,82.4,108.3,60.7,114.6z"/>
		<path d="M82.7,199.3c-6.8,0-11.7-4.2-12.4-4.8c-22.1-15.1-11.1-77.4-10.6-80.1l0.1-0.6l0.6-0.2c7.3-2.1,13.4-1.7,18.4,1.1
			c7,4.1,8.8,11.7,8.9,12l0.1,0.3l-0.1,0.3c-6.3,17.7,1.4,47.4,2.4,50.9c3.8,2.6,6,5.6,6.5,8.9c0.6,4.2-1.8,7.3-1.9,7.5l-0.1,0.1
			C90.3,198.2,86.2,199.3,82.7,199.3z M61.5,115.4c-1.1,6.5-10.1,64,9.9,77.6l0.1,0.1c0.4,0.4,10.2,9.5,21.5,0.3
			c0.3-0.4,1.9-2.8,1.5-5.9c-0.4-2.8-2.4-5.4-5.9-7.7l-0.3-0.2l-0.1-0.3c-0.4-1.3-9.2-32.8-2.5-52.2c-0.4-1.3-2.4-7.3-8-10.5
			C73.5,114,68,113.6,61.5,115.4z"/>
	</g>
	<g>
		<path class="st0" d="M139.9,114.6c0,0,11.7,64.3-10.2,79.1c0,0-10.7,10.2-22.9,0.2c0,0-6.3-7.8,4.6-15.1c0,0,9.3-32.6,2.4-51.9
			C113.9,127,118.2,108.3,139.9,114.6z"/>
		<path d="M117.9,199.3c-3.5,0-7.6-1.2-11.7-4.6l-0.1-0.1c-0.1-0.1-2.6-3.2-1.9-7.5c0.5-3.3,2.7-6.2,6.5-8.9
			c0.9-3.5,8.6-33.3,2.4-50.9l-0.1-0.3l0.1-0.3c0.1-0.3,1.9-7.9,8.9-12c4.9-2.9,11.1-3.3,18.4-1.1l0.6,0.2l0.1,0.6
			c0.5,2.6,11.5,65-10.6,80.1C129.7,195.1,124.7,199.3,117.9,199.3z M107.5,193.3c11.3,9.2,21.1,0.1,21.5-0.3l0.1-0.1
			c20-13.6,11-71.1,9.9-77.6c-6.5-1.8-11.9-1.4-16.2,1.1c-5.6,3.3-7.6,9.2-8,10.5c6.7,19.3-2.1,50.8-2.5,52.2l-0.1,0.3l-0.3,0.2
			c-3.5,2.3-5.5,4.9-5.9,7.7C105.6,190.5,107.2,192.9,107.5,193.3z"/>
	</g>
	<g>
		<g>
			<path class="st0" d="M49.8,52.3c0,0-11.8-37.3,20.1-46.6c0,0,3.7,7.7,4.1,17s8.8,12.2,8.8,12.2L49.8,52.3z"/>
			<path d="M49.2,53.7l-0.4-1.1c-0.2-0.8-5.8-18.9,1.8-33.3c3.8-7.1,10.1-12,18.9-14.6l0.8-0.2l0.4,0.8c0.2,0.3,3.7,8,4.2,17.4
				c0.4,8.6,7.8,11.2,8.1,11.3l2.1,0.7L49.2,53.7z M69.4,6.9c-7.8,2.5-13.5,7-16.9,13.4c-6.2,11.7-3.1,26.5-2,30.6L80.6,35
				c-2.6-1.5-7.2-5.1-7.6-12.2C72.7,15.4,70.3,9,69.4,6.9z"/>
		</g>
		<g>
			<path class="st0" d="M114.5,30.9c0,0,3.2-23.9,10.2-27.3c0,0,17.2,1.9,22.2,21.9c0,0,2.9,16.7-0.2,22.9L114.5,30.9z"/>
			<path d="M147.2,49.8l-33.8-18.3l0.1-0.7c0.3-2.5,3.5-24.5,10.8-28l0.3-0.1l0.3,0c0.2,0,17.9,2.3,23.1,22.6
				c0.1,0.8,3,17.2-0.2,23.6L147.2,49.8z M115.6,30.4l30.8,16.7c2.2-6.4-0.3-21.2-0.3-21.4C141.5,7.9,127.2,5,124.9,4.7
				C119.9,7.6,116.6,23.6,115.6,30.4z"/>
		</g>
		<g>
			<path class="st6" d="M65.6,12.8c0,0-17-2.1-13.1,37.2l4.4,1.8l20.5-10.1l-2.6-8.8c0,0-5.7-2.8-5-9.3
				C69.6,23.6,71.9,15.8,65.6,12.8z"/>
			<path d="M56.8,52.8l-5.3-2.2L51.4,50c-1.7-17.5,0.3-29.3,6.2-35c3.8-3.8,7.9-3.3,8-3.3l0.2,0l0.1,0.1c5.5,2.7,5.4,8.9,4.6,11.9
				C70.1,29.5,75,32,75.1,32l0.4,0.2l3,10L56.8,52.8z M53.3,49.3l3.4,1.4l19.3-9.5l-2.3-7.6c-1.4-0.8-5.8-4-5.2-10l0-0.2
				c0.1-0.3,1.9-6.9-3.4-9.6c-0.7,0-3.5,0-6.4,2.8C55.3,20.1,51.4,28.7,53.3,49.3z"/>
		</g>
		<g>
			<defs>
				<path id="SVGID_7_" d="M65.3,13.7c0,0-15.6-1.5-11.7,33.6l3.9,1.6l18.2-9.1l-2.3-7.9c0,0-5.3-2.5-4.7-8.4
					C68.7,23.5,70.8,16.5,65.3,13.7z"/>
			</defs>
			<clipPath id="SVGID_8_">
				<use xlink:href="#SVGID_7_"  style="overflow:visible;"/>
			</clipPath>
			<g class="st7">
				<path class="st8" d="M50.7,30.5c0,0,11.8-12,20.6-10.1l0.8-7.9l-8.7-5.1l-7.6,3.5l-4.8,4.6l-3,4.1L50.7,30.5z"/>
			</g>
		</g>
		<g>
			<path class="st6" d="M124.7,8.2c0,0-5.7,11.7-6.2,28l24.4,12.3c0,0,1.6-13.8-3.7-28.6C139.1,19.9,134,10.5,124.7,8.2z"/>
			<path d="M143.6,50l-26.2-13.2l0-0.6c0.5-16.3,6.1-27.9,6.3-28.4l0.3-0.7l0.8,0.2c9.7,2.4,14.9,11.8,15.1,12.2l0.1,0.1
				c5.2,14.9,3.8,28.5,3.7,29L143.6,50z M119.4,35.6L141.9,47c0.2-3.8,0.4-15-3.7-26.7c-0.4-0.8-5.1-8.6-13.1-10.9
				C124,12.1,119.9,22.3,119.4,35.6z"/>
		</g>
		<g>
			<defs>
				<path id="SVGID_9_" d="M125.1,9.3c0,0-5.3,11.5-5.8,27.4l22.6,12c0,0,1.5-13.5-3.4-28C138.5,20.8,133.8,11.6,125.1,9.3z"/>
			</defs>
			<clipPath id="SVGID_10_">
				<use xlink:href="#SVGID_9_"  style="overflow:visible;"/>
			</clipPath>
			<g class="st9">
				<path class="st8" d="M118.3,19.8c0,0,19.7,0.6,26.3,18.1s6.9-7.6,6.9-7.6l-7.7-16.1L129.9,7l-6.8-1.5L120.9,9L118.3,19.8z"/>
			</g>
		</g>
		<g>
			<path class="st0" d="M48.1,54.3c0,0,12.5-25.1,50.2-27.3c38.1-2.2,50.8,23.1,50.8,23.1s40.1,59.5-26.1,75.9
				c-41.1,10.2-69.6-4.8-77.5-14.2c-4.6-5.5-6.3-14.3-6.5-20.1C38.6,82.1,41.5,63.3,48.1,54.3z"/>
			<path d="M95.9,130.5c-25.8,0-44.3-9.8-51.2-18c-4.6-5.5-6.5-14.3-6.7-20.7c-0.4-10.1,2.6-28.8,9.2-38
				c0.8-1.6,14.2-25.6,50.9-27.7c37.4-2.1,50.9,22.2,51.7,23.6c1.1,1.7,18.5,28.2,9.8,50.9c-4.9,12.8-17.2,21.7-36.5,26.5
				C113.4,129.4,104.3,130.5,95.9,130.5z M102.8,27.8c-1.5,0-3,0-4.5,0.1c-36.7,2.1-49.2,26.5-49.3,26.7l-0.1,0.1
				c-6.3,8.7-9.3,27.3-8.9,36.8c0.2,6.1,2,14.5,6.3,19.5c5.9,7.1,32.7,24.8,76.5,13.9c18.6-4.6,30.4-13.2,35.1-25.3
				c8.5-22-9.4-48.9-9.6-49.1l-0.1-0.1C148.1,50.3,136.3,27.8,102.8,27.8z"/>
		</g>
		<g>
			<path class="st10" d="M56,81.5c5.2,3.2,12.3,9.9,21.4,10.4c0.9,0.1,1.7-0.1,2.5-0.4c3.3-1.4,10.4-7.3,13.1-31c0,0,2.8-4.9,6,0.3
				c0,0,4.8,26.4,12.2,28.5c0,0,20.6,9.4,29.2-9.6c0,0,5.5-10.6,10.6-2.3c1.7,2.8,1.4,5.4,1.3,8.7c-0.3,9.5-4.6,30.1-34.7,38.1
				c0,0-26.4,7.4-54.9-6.6c-2.1-1.1-6.2-4.5-8.7-7.1c-3.8-4-8.6-13.2-7.3-24.4C47.2,81.6,52.2,79.2,56,81.5z"/>
			<path d="M100.4,127.1c-10.2,0-23.8-1.8-37.7-8.6c-2.4-1.2-6.5-4.7-9-7.3c-3.5-3.7-9-13.1-7.6-25.2c0.3-2.4,1.8-4.5,4-5.6
				c2.2-1.1,4.8-1,6.8,0.3l0,0c1.2,0.7,2.6,1.7,4,2.7c4.6,3.2,10.3,7.2,17,7.6c0.7,0,1.4-0.1,2.1-0.4c2.9-1.2,9.9-6.7,12.5-30.2
				l0-0.2l0.1-0.2c0.2-0.3,1.9-2.9,4.4-2.9c0,0,0,0,0,0c1.5,0,2.8,0.9,3.9,2.7l0.1,0.2l0,0.2c1.2,7.2,5.6,26.3,11.2,27.8l0.2,0.1
				c0.1,0,9.3,4.3,17.5,1.3c4.4-1.6,7.8-5,10.1-10.1c0.2-0.3,3.5-6,7.7-6.1c2-0.1,3.8,1.2,5.3,3.6c1.7,2.7,1.6,5.1,1.5,7.9
				c0,0.4,0,0.8,0,1.2c-0.2,7-3.3,30.4-36.1,39.2C118.2,125.2,111.1,127.1,100.4,127.1z M53.3,81.6c-0.8,0-1.6,0.2-2.3,0.5
				c-1.6,0.8-2.7,2.3-2.9,4c-1.3,11.4,3.8,20.2,7.1,23.7c2.3,2.5,6.4,5.9,8.4,6.9c27.8,13.7,54,6.6,54.2,6.5
				c31.5-8.4,34.5-30.7,34.7-37.4c0-0.4,0-0.8,0-1.2c0.1-2.7,0.2-4.6-1.2-6.8c-1.1-1.8-2.4-2.7-3.6-2.7c-2.5,0-5.2,3.6-6,5
				c-2.5,5.5-6.3,9.3-11.2,11c-8.7,3.2-18-0.9-18.9-1.4c-7.6-2.3-11.8-25.6-12.4-29.2C98.5,59.6,97.8,59,97,59c0,0,0,0,0,0
				c-1.1,0-2.2,1.2-2.6,1.8c-2.7,23.5-9.7,29.9-13.6,31.6c-0.9,0.4-2,0.6-3,0.5c-7.3-0.4-13.2-4.6-18-8c-1.4-1-2.7-1.9-3.8-2.6l0,0
				C55.2,81.9,54.2,81.6,53.3,81.6z"/>
		</g>
		<g>
			
				<ellipse transform="matrix(0.3933 -0.9194 0.9194 0.3933 -5.572 102.9451)" class="st10" cx="75.2" cy="55.7" rx="3.4" ry="7.3"/>
		</g>
		<g>
			
				<ellipse transform="matrix(0.9541 -0.2994 0.2994 0.9541 -11.1576 37.5949)" class="st10" cx="117.1" cy="55.2" rx="7.3" ry="3.4"/>
		</g>
		<g>
			<path class="st10" d="M59.6,68.4h24.8c0,0,1,15.1-11.8,15.8C60.2,84.9,59.6,68.4,59.6,68.4z"/>
		</g>
		<g>
			<path class="st10" d="M107.9,68.4h24.8c0,0,1,15.1-11.8,15.8C108.4,84.9,107.9,68.4,107.9,68.4z"/>
		</g>
		<g>
			<circle class="st11" cx="71.8" cy="75.3" r="5.7"/>
			<path class="st12" d="M71.8,81.4c-3.4,0-6.2-2.8-6.2-6.2c0-3.4,2.8-6.2,6.2-6.2c3.4,0,6.2,2.8,6.2,6.2
				C78,78.7,75.2,81.4,71.8,81.4z M71.8,70.1c-2.9,0-5.2,2.3-5.2,5.2c0,2.9,2.3,5.2,5.2,5.2c2.9,0,5.2-2.3,5.2-5.2
				C77,72.4,74.7,70.1,71.8,70.1z"/>
		</g>
		<g>
			<circle class="st13" cx="71.8" cy="74.9" r="2.6"/>
		</g>
		<g>
			<circle class="st14" cx="70.8" cy="73.4" r="0.6"/>
		</g>
		<g>
			<circle class="st11" cx="120.9" cy="75.3" r="5.7"/>
			<path class="st12" d="M120.9,81.4c-3.4,0-6.2-2.8-6.2-6.2c0-3.4,2.8-6.2,6.2-6.2s6.2,2.8,6.2,6.2C127,78.7,124.3,81.4,120.9,81.4
				z M120.9,70.1c-2.9,0-5.2,2.3-5.2,5.2c0,2.9,2.3,5.2,5.2,5.2c2.9,0,5.2-2.3,5.2-5.2C126.1,72.4,123.7,70.1,120.9,70.1z"/>
		</g>
		<g>
			<circle class="st13" cx="120.8" cy="74.9" r="2.6"/>
		</g>
		<g>
			<circle class="st14" cx="119.9" cy="73.4" r="0.6"/>
		</g>
		<g>
			<line class="st10" x1="97.9" y1="105.7" x2="97.9" y2="97.6"/>
			<path d="M97.9,106.7c-0.5,0-1-0.4-1-1v-8.2c0-0.5,0.4-1,1-1s1,0.4,1,1v8.2C98.8,106.3,98.4,106.7,97.9,106.7z"/>
		</g>
		<g>
			<path class="st0" d="M90.1,95.6c-1.3-1.6-1.3-3.9,0-5.4c1.4-1.6,3.9-3.2,8.7-3c3.1,0.1,5.1,0.8,6.4,1.6c2,1.3,2.5,4.1,1.1,6.1
				c-1.3,1.8-3.8,4.4-7.6,5C94.8,100.5,91.8,97.7,90.1,95.6z"/>
			<path d="M97.5,100.4c-3.4,0-6.1-2.4-7.8-4.5l0,0c-1.5-1.8-1.5-4.3,0-6c1.3-1.5,4-3.4,9.1-3.2c2.8,0.1,5,0.7,6.6,1.7
				c1.1,0.7,1.8,1.8,2,3c0.2,1.3-0.1,2.6-0.8,3.7c-1.5,2-4,4.6-7.9,5.2C98.3,100.4,97.9,100.4,97.5,100.4z M90.5,95.3
				c1.8,2.2,4.6,4.6,8.1,4.1c3.5-0.6,5.9-2.9,7.3-4.8c0.6-0.9,0.9-1.9,0.7-3c-0.2-1-0.8-1.9-1.6-2.4c-1.4-0.9-3.5-1.4-6.1-1.5
				c-3.7-0.1-6.6,0.9-8.3,2.8C89.3,91.9,89.3,93.9,90.5,95.3L90.5,95.3z"/>
		</g>
		<g>
			<ellipse class="st2" cx="97.5" cy="89" rx="1.6" ry="0.4"/>
		</g>
		<g>
			<path class="st0" d="M78.1,107.4c-1-0.8-0.3-2.5,1-2.2c3.6,0.7,9.8,1.5,19.2,1.4c10.3-0.1,16.3-1.3,19.5-2.2c1.2-0.3,2.1,1,1.4,2
				c-2,2.6-6.9,6.1-18.7,6.8C88.5,113.9,81.6,110.3,78.1,107.4z"/>
			<path d="M97.4,113.8c-10.1,0-16.2-3.2-19.7-6l0,0c-0.6-0.5-0.8-1.4-0.5-2.1c0.3-0.7,1.1-1.1,1.9-1c3.5,0.7,9.6,1.5,19.1,1.4
				c10.1-0.1,16.1-1.2,19.3-2.1c0.7-0.2,1.5,0.1,1.9,0.7c0.4,0.6,0.4,1.4-0.1,2.1c-2.2,2.8-7.2,6.3-19.1,7
				C99.4,113.8,98.4,113.8,97.4,113.8z M78.4,107.1c3.6,3,10.4,6.4,22,5.7c11.5-0.7,16.3-4,18.4-6.6c0.3-0.3,0.2-0.7,0-0.9
				c-0.2-0.2-0.5-0.4-0.9-0.3c-3.3,0.9-9.3,2.1-19.6,2.2c-9.5,0.1-15.8-0.7-19.3-1.4c-0.4-0.1-0.7,0.2-0.8,0.4
				C78,106.4,78,106.8,78.4,107.1L78.4,107.1z"/>
		</g>
		<g>
			<path class="st15" d="M92.8,108.2c1.1,0,3.6,0,4.4,0.5c0,0,5.1-1.6,7.4-0.2s0.9,16-6.8,16c-5.4,0-7.8-8.6-8-13.2
				C89.7,109.6,91.1,108.1,92.8,108.2z"/>
			<path d="M97.8,125c-6,0-8.3-9.2-8.5-13.7c0-1,0.3-1.9,1-2.6c0.7-0.7,1.6-1.1,2.6-1.1l0.1,0c1.8,0,3.5,0.1,4.4,0.5
				c1-0.3,5.4-1.5,7.6,0c1.6,1,1.5,5.8,0.4,9.5C103.9,122.3,101.2,125,97.8,125z M92.8,108.6c-0.7,0-1.3,0.3-1.8,0.8
				c-0.5,0.5-0.7,1.2-0.7,1.9c0.2,4,2.3,12.8,7.5,12.8c4.2,0,6-4.7,6.6-6.7c1.2-4,0.8-7.9,0-8.4c-1.7-1.1-5.6-0.2-7,0.2l-0.2,0.1
				l-0.2-0.1c-0.7-0.4-3.1-0.5-4.1-0.5L92.8,108.6C92.8,108.6,92.8,108.6,92.8,108.6z"/>
		</g>
		<g>
			<path class="st15" d="M97.3,109.8c0,0,1.2,1.7,0.6,7.9"/>
			<path d="M97.9,118.2C97.9,118.2,97.8,118.2,97.9,118.2c-0.3,0-0.5-0.3-0.5-0.5c0.6-5.9-0.5-7.6-0.5-7.6c-0.2-0.2-0.1-0.5,0.1-0.7
				c0.2-0.2,0.5-0.1,0.7,0.1c0.1,0.2,1.3,2,0.7,8.2C98.3,118,98.1,118.2,97.9,118.2z"/>
		</g>
		<g>
			<circle class="st16" cx="61.7" cy="99.4" r="5"/>
		</g>
		<g>
			<circle class="st16" cx="139.5" cy="97.6" r="5"/>
		</g>
	</g>
	<g>
		<defs>
			<path id="SVGID_11_" d="M61.6,119.6c0,0-10.8,59.5,9.5,73.3c0,0,11.3,9.4,22.5,0.1c0,0,4.5-7.1-5.6-13.9c0,0-8.6-30.2-2.3-48
				C85.7,131,81.7,113.7,61.6,119.6z"/>
		</defs>
		<clipPath id="SVGID_12_">
			<use xlink:href="#SVGID_11_"  style="overflow:visible;"/>
		</clipPath>
		<g class="st17">
			<polygon class="st2" points="54,181.4 96.3,168.9 103.3,191 85.1,205.6 57.6,197.2 			"/>
			<path d="M85.4,206.7l-28.5-8.7l-3.9-17.2l44-13l7.6,23.6L85.4,206.7z M58.5,196.4l26.5,8.1l17.3-13.8l-6.6-20.5l-40.4,11.9
				L58.5,196.4z"/>
		</g>
	</g>
	<g>
		<defs>
			<path id="SVGID_13_" d="M138.8,118.4c0,0,11.1,60.8-9.7,74.9c0,0-10.1,9.7-21.7,0.2c0,0-6-7.4,4.4-14.3c0,0,8.8-30.9,2.3-49.1
				C114.1,130.2,118.3,112.4,138.8,118.4z"/>
		</defs>
		<clipPath id="SVGID_14_">
			<use xlink:href="#SVGID_13_"  style="overflow:visible;"/>
		</clipPath>
		<g class="st18">
			<polygon class="st2" points="104.1,169.9 148.2,179.1 143,201.4 110.9,211.2 98.3,196.8 100.4,178.4 			"/>
			<path d="M110.5,212.4l-13.3-15.2l2.3-19.1l4-9.2l45.8,9.6l-5.6,23.8L110.5,212.4z M99.3,196.5l11.9,13.6l31-9.5l4.9-20.7
				l-42.3-8.8l-3.3,7.6L99.3,196.5z"/>
		</g>
	</g>
</g>
</svg>
